# xmcd
#
# Track frame offsets:
#	187
#	16457
#	37485
#	59342
#	84475
#	102745
#	120882
#	137520
#	156152
#	179332
#	200407
#	226792
#
# Disc length: 3308 seconds
#
# Revision: 1
# Processed by: cddbd v1.5.1PL0 Copyright (c) Steve Scherf et al.
# Submitted via: CDex 1.50Beta5
#
DISCID=9e0cea0c
DTITLE=柿島伸次 - Rolling DOWN HOME
DYEAR=1995
DGENRE=Rock
TTITLE0=RED or BLACK
TTITLE1=Rolling DOWN HOME
TTITLE2=TVの向うで
TTITLE3=朝が降る夜が来る
TTITLE4=いつか夏の日に
TTITLE5=瞳の中へ
TTITLE6=ふたり雨の日
TTITLE7=いつもの様に僕は
TTITLE8=木村君の悲劇
TTITLE9=Letter
TTITLE10=たった一人の俺
TTITLE11=君がいるから
EXTD=
EXTT0=
EXTT1=
EXTT2=
EXTT3=
EXTT4=
EXTT5=
EXTT6=
EXTT7=
EXTT8=
EXTT9=
EXTT10=
EXTT11=
PLAYORDER=
